name C:\Users\u0101727\Documents\MyRepositories\upper-imu-dc\Results\main_tracking\Case_43\FLX01_orientations_groundFrame.mot
datacolumns 13
datarows 29
range 5.01000000 5.29000000
endheader 
time	radius_imu_[0][0]	radius_imu_[0][1]	radius_imu_[0][2]	radius_imu_[1][0]	radius_imu_[1][1]	radius_imu_[1][2]	radius_imu_[2][0]	radius_imu_[2][1]	radius_imu_[2][2]	radius_imu_x	radius_imu_y	radius_imu_z	
          5.01000000	          0.24501764	         -0.89785214	          0.36582494	         -0.29651507	          0.28984995	          0.90998122	         -0.92306293	         -0.33143406	         -0.19520834	         -1.78211278	          0.37451903	          1.30438995	
          5.02000000	          0.24130648	         -0.89418909	          0.37709026	         -0.29188557	          0.30370505	          0.90695428	         -0.92551283	         -0.32892114	         -0.18771489	         -1.77488745	          0.38665261	          1.30721435	
          5.03000000	          0.24421104	         -0.88813003	          0.38934050	         -0.28723588	          0.31722963	          0.90380358	         -0.92620544	         -0.33255137	         -0.17763183	         -1.76486093	          0.39991549	          1.30245599	
          5.04000000	          0.25103881	         -0.88061327	          0.40187035	         -0.28256401	          0.33041544	          0.90054606	         -0.92581699	         -0.33962611	         -0.16588252	         -1.75295653	          0.41355847	          1.29308993	
          5.05000000	          0.25796582	         -0.87299741	          0.41391927	         -0.27788465	          0.34327458	          0.89718598	         -0.92532900	         -0.34646513	         -0.15403947	         -1.74083030	          0.42675527	          1.28347824	
          5.06000000	          0.26454337	         -0.86546089	          0.42543420	         -0.27321073	          0.35581775	          0.89372794	         -0.92486361	         -0.35266299	         -0.14232398	         -1.72871782	          0.43944162	          1.27414802	
          5.07000000	          0.27075961	         -0.85802217	          0.43644839	         -0.26855621	          0.36805721	          0.89017495	         -0.92442782	         -0.35823435	         -0.13077215	         -1.71665911	          0.45164745	          1.26512387	
          5.08000000	          0.27662533	         -0.85068764	          0.44699996	         -0.26393586	          0.38000656	          0.88652855	         -0.92402180	         -0.36321557	         -0.11940753	         -1.70468170	          0.46340877	          1.25640299	
          5.09000000	          0.28215673	         -0.84345797	          0.45712825	         -0.25936545	          0.39168043	          0.88278877	         -0.92364341	         -0.36764807	         -0.10824859	         -1.69280840	          0.47476365	          1.24797477	
          5.10000000	          0.28737280	         -0.83632926	          0.46687282	         -0.25486155	          0.40309431	          0.87895424	         -0.92328894	         -0.37157548	         -0.09730983	         -1.68105822	          0.48575123	          1.23982364	
          5.11000000	          0.29229499	         -0.82929348	          0.47627299	         -0.25044104	          0.41426453	          0.87502239	         -0.92295337	         -0.37504296	         -0.08660168	         -1.66944588	          0.49641121	          1.23192929	
          5.12000000	          0.29694679	         -0.82233899	          0.48536707	         -0.24612043	          0.42520789	          0.87098966	         -0.92263066	         -0.37809634	         -0.07613030	         -1.65798141	          0.50678296	          1.22426709	
          5.13000000	          0.30135335	         -0.81545129	          0.49419161	         -0.24191524	          0.43594137	          0.86685186	         -0.92231403	         -0.38078119	         -0.06589770	         -1.64666996	          0.51690472	          1.21680869	
          5.14000000	          0.30554100	         -0.80861371	          0.50278083	         -0.23783941	          0.44648178	          0.86260445	         -0.92199626	         -0.38314212	         -0.05590172	         -1.63551157	          0.52681279	          1.20952254	
          5.15000000	          0.30953689	         -0.80180803	          0.51116611	         -0.23390482	          0.45684558	          0.85824277	         -0.92166993	         -0.38522201	         -0.04613620	         -1.62450122	          0.53654101	          1.20237455	
          5.16000000	          0.31336836	         -0.79501520	          0.51937569	         -0.23012089	          0.46704862	          0.85376224	         -0.92132765	         -0.38706127	         -0.03659135	         -1.61362906	          0.54612021	          1.19532892	
          5.17000000	          0.31706219	         -0.78821608	          0.52743433	         -0.22649439	          0.47710592	          0.84915854	         -0.92096246	         -0.38869698	         -0.02725427	         -1.60288093	          0.55557785	          1.18834932	
          5.18000000	          0.32064381	         -0.78139227	          0.53536312	         -0.22302914	          0.48703144	          0.84442784	         -0.92056806	         -0.39016213	         -0.01810963	         -1.59223908	          0.56493760	          1.18140006	
          5.19000000	          0.32413640	         -0.77452686	          0.54317929	         -0.21972593	          0.49683780	          0.83956698	         -0.92013918	         -0.39148479	         -0.00914042	         -1.58168296	          0.57421909	          1.17444749	
          5.20000000	          0.32756012	         -0.76760523	          0.55089615	         -0.21658237	          0.50653604	          0.83457374	         -0.91967192	         -0.39268747	         -0.00032876	         -1.57119025	          0.58343764	          1.16746133	
          5.21000000	          0.33093142	         -0.76061578	          0.55852308	         -0.21359296	          0.51613533	          0.82944702	         -0.91916399	         -0.39378668	          0.00834322	         -1.56073789	          0.59260421	          1.16041591	
          5.22000000	          0.33426280	         -0.75355033	          0.56606562	         -0.21074930	          0.52564282	          0.82418709	         -0.91861478	         -0.39479302	          0.01689263	         -1.55030308	          0.60172534	          1.15329082	
          5.23000000	          0.33756306	         -0.74640427	          0.57352581	         -0.20804045	          0.53506346	          0.81879562	         -0.91802525	         -0.39571172	          0.02533538	         -1.53986395	          0.61080343	          1.14607095	
          5.24000000	          0.34083797	         -0.73917631	          0.58090263	         -0.20545346	          0.54440011	          0.81327572	         -0.91739760	         -0.39654370	          0.03368590	         -1.52939997	          0.61983717	          1.13874587	
          5.25000000	          0.34409129	         -0.73186794	          0.58819257	         -0.20297406	          0.55365372	          0.80763178	         -0.91673481	         -0.39728690	          0.04195721	         -1.51889207	          0.62882210	          1.13130858	
          5.26000000	          0.34732594	         -0.72448266	          0.59539027	         -0.20058735	          0.56282363	          0.80186924	         -0.91604007	         -0.39793774	          0.05016119	         -1.50832241	          0.63775131	          1.12375407	
          5.27000000	          0.35054510	         -0.71702506	          0.60248917	         -0.19827844	          0.57190803	          0.79599426	         -0.91531622	         -0.39849250	          0.05830895	         -1.49767396	          0.64661622	          1.11607759	
          5.28000000	          0.35375353	         -0.70949985	          0.60948208	         -0.19603302	          0.58090443	          0.79001335	         -0.91456519	         -0.39894863	          0.06641159	         -1.48692962	          0.65540714	          1.10827284	
          5.29000000	          0.35695865	         -0.70191086	          0.61636164	         -0.19383770	          0.58981018	          0.78393297	         -0.91378743	         -0.39930577	          0.07448106	         -1.47607119	          0.66411395	          1.10033001	
